<svg width="1823" height="920" viewBox="0 0 1823 920" fill="none" xmlns="http://www.w3.org/2000/svg">
<path d="M-4.04716e-05 0H1823V920H-4.04716e-05V0Z" fill="#8F8AB2"/>
<path d="M748.017 418.259C877.972 458.738 1034.44 614.158 1234.05 516.209C1433.66 418.259 1823 498.718 1823 498.718L1823 920H-4.04716e-05V538.697C-4.04716e-05 538.697 192.852 535.199 356.595 458.738C520.337 382.278 618.063 377.78 748.017 418.259Z" fill="#5E5185"/>
<path d="M1074.98 703.88C945.028 721.316 788.563 788.262 588.953 746.071C389.343 703.88 -0.00012207 738.537 -0.00012207 738.537L-4.04716e-05 920H1823L1823 755.758C1823 755.758 1630.15 754.251 1466.41 721.316C1302.66 688.382 1204.94 686.444 1074.98 703.88Z" fill="#52386F"/>
</svg>
